<svg id="dollar" xmlns="http://www.w3.org/2000/svg" width="19.076" height="19.076" viewBox="0 0 19.076 19.076">
  <path id="Path_26" data-name="Path 26" d="M9.575,0A9.571,9.571,0,0,0,0,9.5a9.635,9.635,0,0,0,9.575,9.575A9.538,9.538,0,0,0,9.575,0Z" fill="#fedb41"/>
  <path id="Path_27" data-name="Path 27" d="M266.5,9.5a9.571,9.571,0,0,1-9.5,9.575V0A9.507,9.507,0,0,1,266.5,9.5Z" transform="translate(-247.425)" fill="#fc3"/>
  <path id="Path_28" data-name="Path 28" d="M67.34,60a7.3,7.3,0,1,0,7.265,7.265A7.344,7.344,0,0,0,67.34,60Z" transform="translate(-57.764 -57.764)" fill="#fea832"/>
  <path id="Path_29" data-name="Path 29" d="M264.265,67.265A7.344,7.344,0,0,1,257,74.605V60A7.28,7.28,0,0,1,264.265,67.265Z" transform="translate(-247.425 -57.764)" fill="#fe9923"/>
  <path id="Path_30" data-name="Path 30" d="M183.987,124.471h-.559v-2.236h.559a.553.553,0,0,1,.559.559.559.559,0,0,0,1.118,0,1.674,1.674,0,0,0-1.677-1.677h-.559v-.559a.559.559,0,0,0-1.118,0v.559h-.633A1.674,1.674,0,0,0,180,122.794v1.118a1.674,1.674,0,0,0,1.677,1.677h.633v2.31h-.633a.553.553,0,0,1-.559-.559.559.559,0,0,0-1.118,0,1.674,1.674,0,0,0,1.677,1.677h.633v.559a.559.559,0,0,0,1.118,0v-.559h.559a1.674,1.674,0,0,0,1.677-1.677v-1.192A1.674,1.674,0,0,0,183.987,124.471Zm-1.677,0h-.633a.553.553,0,0,1-.559-.559v-1.118a.553.553,0,0,1,.559-.559h.633Zm2.236,2.869a.553.553,0,0,1-.559.559h-.559v-2.31h.559a.553.553,0,0,1,.559.559Z" transform="translate(-173.293 -115.529)" fill="#fedb41"/>
  <path id="Path_31" data-name="Path 31" d="M258.118,124.471h-.559v-2.236h.559a.553.553,0,0,1,.559.559.559.559,0,0,0,1.118,0,1.674,1.674,0,0,0-1.677-1.677h-.559v-.559A.539.539,0,0,0,257,120v10.134a.539.539,0,0,0,.559-.559v-.559h.559a1.674,1.674,0,0,0,1.677-1.677v-1.192A1.674,1.674,0,0,0,258.118,124.471Zm.559,2.869a.553.553,0,0,1-.559.559h-.559v-2.31h.559a.553.553,0,0,1,.559.559Z" transform="translate(-247.425 -115.529)" fill="#fc3"/>
</svg>
