<svg xmlns="http://www.w3.org/2000/svg" width="32.964" height="24.886" viewBox="0 0 32.964 24.886">
  <g id="wifi-signal" transform="translate(0 -18.083)">
    <path id="Path_50" data-name="Path 50" d="M47.006,86.152a1.675,1.675,0,1,0,2.369,2.369,4.577,4.577,0,0,1,6.465,0,1.675,1.675,0,1,0,2.369-2.369A7.931,7.931,0,0,0,47.006,86.152Z" transform="translate(-36.126 -51.067)" fill="#fff"/>
    <path id="Path_51" data-name="Path 51" d="M25.024,57.109a1.675,1.675,0,1,0,2.369,2.369,11.528,11.528,0,0,1,16.285,0,1.675,1.675,0,1,0,2.369-2.369A14.883,14.883,0,0,0,25.024,57.109Z" transform="translate(-19.054 -26.934)" fill="#fff"/>
    <path id="Path_52" data-name="Path 52" d="M32.473,24.7a22.64,22.64,0,0,0-31.982,0A1.675,1.675,0,1,0,2.86,27.065a19.265,19.265,0,0,1,27.244,0A1.675,1.675,0,1,0,32.473,24.7Z" fill="#fff"/>
    <circle id="Ellipse_8" data-name="Ellipse 8" cx="1.838" cy="1.838" r="1.838" transform="translate(14.644 39.292)" fill="#fff"/>
  </g>
</svg>
